<?xml version="1.0" encoding="UTF-8"?>
<svg version="1.1" xmlns="http://www.w3.org/2000/svg" width="48" height="48">
<path d="M0 0 C2.5 1.5 2.5 1.5 4 4 C4.791013 8.02098277 4.62153384 10.96411027 2.5 14.5 C-1.03588973 16.62153384 -3.97901723 16.791013 -8 16 C-10.5 14.5 -10.5 14.5 -12 12 C-12.791013 7.97901723 -12.62153384 5.03588973 -10.5 1.5 C-6.96411027 -0.62153384 -4.02098277 -0.791013 0 0 Z M-8 5 C-8.16666667 8 -8.16666667 8 -8 11 C-6.88163776 12.34404775 -6.88163776 12.34404775 -4 12.125 C-1.11836224 12.34404775 -1.11836224 12.34404775 0 11 C0.16666667 8 0.16666667 8 0 5 C-1.11836224 3.65595225 -1.11836224 3.65595225 -4 3.875 C-6.88163776 3.65595225 -6.88163776 3.65595225 -8 5 Z " fill="#434140" transform="translate(38,26)"/>
<path d="M0 0 C2.5 1.5 2.5 1.5 4 4 C4.791013 8.02098277 4.62153384 10.96411027 2.5 14.5 C-1.03588973 16.62153384 -3.97901723 16.791013 -8 16 C-10.5 14.5 -10.5 14.5 -12 12 C-12.791013 7.97901723 -12.62153384 5.03588973 -10.5 1.5 C-6.96411027 -0.62153384 -4.02098277 -0.791013 0 0 Z M-8 5 C-8.16666667 8 -8.16666667 8 -8 11 C-6.88163776 12.34404775 -6.88163776 12.34404775 -4 12.125 C-1.11836224 12.34404775 -1.11836224 12.34404775 0 11 C0.16666667 8 0.16666667 8 0 5 C-1.11836224 3.65595225 -1.11836224 3.65595225 -4 3.875 C-6.88163776 3.65595225 -6.88163776 3.65595225 -8 5 Z " fill="#434140" transform="translate(18,26)"/>
<path d="M0 0 C2.5 1.5 2.5 1.5 4 4 C4.791013 8.02098277 4.62153384 10.96411027 2.5 14.5 C-1.03588973 16.62153384 -3.97901723 16.791013 -8 16 C-10.5 14.5 -10.5 14.5 -12 12 C-12.791013 7.97901723 -12.62153384 5.03588973 -10.5 1.5 C-6.96411027 -0.62153384 -4.02098277 -0.791013 0 0 Z M-8 5 C-8.16666667 8 -8.16666667 8 -8 11 C-6.88163776 12.34404775 -6.88163776 12.34404775 -4 12.125 C-1.11836224 12.34404775 -1.11836224 12.34404775 0 11 C0.16666667 8 0.16666667 8 0 5 C-1.11836224 3.65595225 -1.11836224 3.65595225 -4 3.875 C-6.88163776 3.65595225 -6.88163776 3.65595225 -8 5 Z " fill="#434140" transform="translate(38,6)"/>
<path d="M0 0 C2.5 1.5 2.5 1.5 4 4 C4.791013 8.02098277 4.62153384 10.96411027 2.5 14.5 C-1.03588973 16.62153384 -3.97901723 16.791013 -8 16 C-10.5 14.5 -10.5 14.5 -12 12 C-12.791013 7.97901723 -12.62153384 5.03588973 -10.5 1.5 C-6.96411027 -0.62153384 -4.02098277 -0.791013 0 0 Z M-8 5 C-8.16666667 8 -8.16666667 8 -8 11 C-6.88163776 12.34404775 -6.88163776 12.34404775 -4 12.125 C-1.11836224 12.34404775 -1.11836224 12.34404775 0 11 C0.16666667 8 0.16666667 8 0 5 C-1.11836224 3.65595225 -1.11836224 3.65595225 -4 3.875 C-6.88163776 3.65595225 -6.88163776 3.65595225 -8 5 Z " fill="#434140" transform="translate(18,6)"/>
</svg>
