<?xml version="1.0" encoding="UTF-8"?>
<svg version="1.1" xmlns="http://www.w3.org/2000/svg" width="48" height="48">
<path d="M0 0 C1.7634375 -0.02900391 1.7634375 -0.02900391 3.5625 -0.05859375 C8.36114878 -0.0313287 11.96310948 0.09789336 16.2734375 2.2890625 C19.14924058 7.84547841 18.71861828 13.47115815 18.625 19.625 C18.64433594 20.89601563 18.66367187 22.16703125 18.68359375 23.4765625 C18.62915476 33.81997107 18.62915476 33.81997107 15.6484375 37 C13 38.625 13 38.625 10 38.625 C10 40.275 10 41.925 10 43.625 C6 43.625 2 43.625 -2 43.625 C-2 41.975 -2 40.325 -2 38.625 C-2.73605469 38.68300781 -3.47210938 38.74101563 -4.23046875 38.80078125 C-5.69419922 38.86845703 -5.69419922 38.86845703 -7.1875 38.9375 C-8.15042969 38.99550781 -9.11335937 39.05351563 -10.10546875 39.11328125 C-13 38.625 -13 38.625 -15.82421875 36.98046875 C-19.35142056 31.54085232 -18.72137856 25.96028404 -18.625 19.625 C-18.64433594 18.35398437 -18.66367187 17.08296875 -18.68359375 15.7734375 C-18.65696714 10.71438129 -18.61838788 6.81980374 -16.2734375 2.2890625 C-10.99100051 -0.39628136 -5.83614402 -0.09598921 0 0 Z M-14 6.625 C-14.14557157 9.54225418 -14.18598967 12.33814805 -14.125 15.25 C-14.08375 18.01375 -14.0425 20.7775 -14 23.625 C-4.76 23.295 4.48 22.965 14 22.625 C14.04125 20.02625 14.0825 17.4275 14.125 14.75 C14.15231201 13.52434326 14.15231201 13.52434326 14.18017578 12.27392578 C14.19477217 10.39004951 14.09943482 8.50630688 14 6.625 C11.39131631 4.01631631 10.25467636 4.36771087 6.625 4.359375 C5.55765625 4.35679688 4.4903125 4.35421875 3.390625 4.3515625 C2.27171875 4.35929688 1.1528125 4.36703125 0 4.375 C-1.67835937 4.36339844 -1.67835937 4.36339844 -3.390625 4.3515625 C-4.45796875 4.35414062 -5.5253125 4.35671875 -6.625 4.359375 C-8.09839844 4.36275879 -8.09839844 4.36275879 -9.6015625 4.36621094 C-12.18438497 4.39127137 -12.18438497 4.39127137 -14 6.625 Z M-14 28.625 C-13.71016731 31.93183466 -13.71016731 31.93183466 -12 34.625 C-10.31391034 34.69705511 -8.62499341 34.70886068 -6.9375 34.6875 C-6.01839844 34.67847656 -5.09929688 34.66945313 -4.15234375 34.66015625 C-3.44207031 34.64855469 -2.73179688 34.63695312 -2 34.625 C-1.67 32.975 -1.34 31.325 -1 29.625 C2.3 29.625 5.6 29.625 9 29.625 C9.33 31.275 9.66 32.925 10 34.625 C11.32 33.965 12.64 33.305 14 32.625 C14 30.645 14 28.665 14 26.625 C9.70838953 26.56716158 5.41687855 26.5314588 1.125 26.5 C-0.09832031 26.48324219 -1.32164063 26.46648438 -2.58203125 26.44921875 C-3.74863281 26.44277344 -4.91523438 26.43632812 -6.1171875 26.4296875 C-7.19597168 26.41921387 -8.27475586 26.40874023 -9.38623047 26.39794922 C-12.16044022 26.35660023 -12.16044022 26.35660023 -14 28.625 Z M2 32.625 C2 34.275 2 35.925 2 37.625 C3.32 37.625 4.64 37.625 6 37.625 C6 35.975 6 34.325 6 32.625 C4.68 32.625 3.36 32.625 2 32.625 Z " fill="#956311" transform="translate(24,1.375)"/>
<path d="M0 0 C5.94 0 11.88 0 18 0 C18 1.32 18 2.64 18 4 C12.06 4 6.12 4 0 4 C0 2.68 0 1.36 0 0 Z " fill="#956311" transform="translate(15,10)"/>
<path d="M0 0 C3.3 0 6.6 0 10 0 C10 1.32 10 2.64 10 4 C6.7 4 3.4 4 0 4 C0 2.68 0 1.36 0 0 Z " fill="#956311" transform="translate(15,17)"/>
</svg>
