<?xml version="1.0" encoding="UTF-8"?>
<svg version="1.1" xmlns="http://www.w3.org/2000/svg" width="48" height="48">
<path d="M0 0 C1.134375 -0.00644531 2.26875 -0.01289062 3.4375 -0.01953125 C4.613125 -0.00019531 5.78875 0.01914062 7 0.0390625 C8.7634375 0.01005859 8.7634375 0.01005859 10.5625 -0.01953125 C11.696875 -0.01308594 12.83125 -0.00664063 14 0 C15.546875 0.00845947 15.546875 0.00845947 17.125 0.01708984 C21.12850321 0.91801405 22.58319231 2.37574926 25 5.6640625 C25.45251344 8.42893856 25.61366338 10.55550542 25.5234375 13.30078125 C25.51873444 14.02143265 25.51403137 14.74208405 25.50918579 15.48457336 C25.48792629 17.7745629 25.43134917 20.06219686 25.375 22.3515625 C25.35848365 23.90167089 25.34413796 25.45180402 25.33203125 27.00195312 C25.19700333 38.27005584 25.19700333 38.27005584 24 40.6640625 C21.5625 41.1015625 21.5625 41.1015625 18 40.6640625 C15.80859375 39.0703125 15.80859375 39.0703125 13.5 37.1015625 C10.12499821 34.24095974 10.12499821 34.24095974 5.875 33.3515625 C2.54228549 34.87301912 0.40323047 36.88368151 -2.25390625 39.36328125 C-4 40.6640625 -4 40.6640625 -7.4375 41.0390625 C-8.7059375 40.8534375 -8.7059375 40.8534375 -10 40.6640625 C-12.24334174 36.17737902 -11.31119375 29.66999844 -11.35009766 24.6887207 C-11.36664362 23.13583373 -11.39391642 21.5830225 -11.43212891 20.03051758 C-11.48704414 17.78687209 -11.50879138 15.54500925 -11.5234375 13.30078125 C-11.54610687 12.61102707 -11.56877625 11.92127289 -11.59213257 11.21061707 C-11.5759095 7.48874025 -11.06574475 5.75351493 -8.84228516 2.72827148 C-5.57353172 0.35434 -3.99649787 0.02185585 0 0 Z M0 7.6640625 C0 8.3240625 0 8.9840625 0 9.6640625 C4.62 9.6640625 9.24 9.6640625 14 9.6640625 C14 9.0040625 14 8.3440625 14 7.6640625 C9.38 7.6640625 4.76 7.6640625 0 7.6640625 Z " fill="#FFFFFF" transform="translate(17,3.3359375)"/>
</svg>
