<?xml version="1.0" encoding="UTF-8"?>
<svg version="1.1" xmlns="http://www.w3.org/2000/svg" width="48" height="48">
<path d="M0 0 C0.97195312 -0.01160156 1.94390625 -0.02320312 2.9453125 -0.03515625 C8.2852063 -0.01333107 12.55662512 0.08412548 17 3.375 C19.72364865 7.83965079 20.37618529 11.18841415 20.36328125 16.3828125 C20.36263672 17.69894531 20.36199219 19.01507812 20.36132812 20.37109375 C20.35302979 21.04897949 20.34473145 21.72686523 20.33618164 22.42529297 C20.31248438 24.50136875 20.31564422 26.57616602 20.32226562 28.65234375 C20.26016321 40.15822738 20.26016321 40.15822738 18 43.375 C15.25 44.375 15.25 44.375 12 44.375 C8.9375 42.6875 8.9375 42.6875 6 40.375 C5.05125 39.6325 4.1025 38.89 3.125 38.125 C2.42375 37.5475 1.7225 36.97 1 36.375 C-2.60476919 37.4673543 -4.72642134 38.98566614 -7.375 41.5625 C-10.24291605 44.12919073 -10.7169312 44.36571906 -14.8125 44.5 C-18 43.375 -18 43.375 -19.18041992 41.72607422 C-20.86202462 36.90216797 -20.33179731 31.6410581 -20.31567383 26.58544922 C-20.31252048 24.51345887 -20.33596602 22.44290709 -20.36132812 20.37109375 C-20.36197266 19.05496094 -20.36261719 17.73882813 -20.36328125 16.3828125 C-20.36626221 15.18285645 -20.36924316 13.98290039 -20.37231445 12.74658203 C-19.95713557 8.98683098 -18.96209921 6.59130611 -17 3.375 C-11.79950095 -0.47661961 -6.203645 -0.07404881 0 0 Z M-16 9.375 C-16.68429644 12.74784415 -16.68429644 12.74784415 -16.48828125 16.42578125 C-16.48120651 17.08458786 -16.47413177 17.74339447 -16.46684265 18.42216492 C-16.43900979 20.51180034 -16.37630819 22.59868476 -16.3125 24.6875 C-16.28740205 26.10998714 -16.26459148 27.53251659 -16.24414062 28.95507812 C-16.18922446 32.42926861 -16.10303685 35.9018655 -16 39.375 C-15.01 39.705 -14.02 40.035 -13 40.375 C-10.14227778 38.4369529 -7.54852689 36.26025511 -4.88671875 34.0625 C-2 32.375 -2 32.375 1.09765625 32.3984375 C4.27772787 33.46844814 5.78960589 34.62678575 8.125 37 C9.97465493 38.98841728 9.97465493 38.98841728 12 40.375 C14.09907297 40.00713862 14.09907297 40.00713862 16 39.375 C16.12403121 35.19419399 16.21453601 31.01437498 16.2746582 26.83227539 C16.29973147 25.41118709 16.33379999 23.99022687 16.37719727 22.56958008 C16.43817858 20.52132538 16.46627762 18.47478117 16.48828125 16.42578125 C16.51446533 15.19512939 16.54064941 13.96447754 16.56762695 12.6965332 C15.83380576 8.40249565 14.44614589 6.9700893 11 4.375 C8.5014541 3.62187966 8.5014541 3.62187966 5.875 3.7109375 C4.92109375 3.70449219 3.9671875 3.69804688 2.984375 3.69140625 C1.50710937 3.72041016 1.50710937 3.72041016 0 3.75 C-0.98484375 3.73066406 -1.9696875 3.71132812 -2.984375 3.69140625 C-4.41523438 3.70107422 -4.41523438 3.70107422 -5.875 3.7109375 C-7.17050781 3.71939697 -7.17050781 3.71939697 -8.4921875 3.72802734 C-12.20349727 4.68548167 -13.69734164 6.35455727 -16 9.375 Z " fill="#956311" transform="translate(24,1.625)"/>
<path d="M0 0 C4.62 0 9.24 0 14 0 C14 1.32 14 2.64 14 4 C9.38 4 4.76 4 0 4 C0 2.68 0 1.36 0 0 Z " fill="#956311" transform="translate(17,10)"/>
</svg>
