<?xml version="1.0" encoding="UTF-8"?>
<svg version="1.1" xmlns="http://www.w3.org/2000/svg" width="48" height="48">
<path d="M0 0 C4.24822374 0.47202486 6.19989709 2.96655518 9 6 C11.56451085 4.90092392 13.09554946 3.9015551 15.0625 1.875 C17 0 17 0 20 0 C19.52797514 4.24822374 17.03344482 6.19989709 14 9 C15.09907608 11.56451085 16.0984449 13.09554946 18.125 15.0625 C20 17 20 17 20 20 C15.75177626 19.52797514 13.80010291 17.03344482 11 14 C8.43548915 15.09907608 6.90445054 16.0984449 4.9375 18.125 C3 20 3 20 0 20 C0.47202486 15.75177626 2.96655518 13.80010291 6 11 C4.90092392 8.43548915 3.9015551 6.90445054 1.875 4.9375 C0 3 0 3 0 0 Z " fill="#28303F" transform="translate(14,14)"/>
</svg>
