<?xml version="1.0" encoding="UTF-8"?>
<svg version="1.1" xmlns="http://www.w3.org/2000/svg" width="48" height="48">
<path d="M0 0 C1.134375 -0.00644531 2.26875 -0.01289063 3.4375 -0.01953125 C4.613125 -0.00019531 5.78875 0.01914062 7 0.0390625 C8.7634375 0.01005859 8.7634375 0.01005859 10.5625 -0.01953125 C11.696875 -0.01308594 12.83125 -0.00664062 14 0 C15.546875 0.00845947 15.546875 0.00845947 17.125 0.01708984 C21.13123509 0.91862882 22.57849346 2.37480851 25 5.6640625 C25.50061116 8.45690602 25.70418481 10.63033299 25.6640625 13.4140625 C25.66884613 14.14979492 25.67362976 14.88552734 25.67855835 15.64355469 C25.6819488 17.19338123 25.67280592 18.74328011 25.65185547 20.29296875 C25.62507002 22.65788036 25.65162417 25.01804752 25.68359375 27.3828125 C25.68028949 28.89323958 25.6738829 30.40366373 25.6640625 31.9140625 C25.67418365 32.6162793 25.68430481 33.31849609 25.69473267 34.04199219 C25.60627758 37.7696534 25.06195936 39.57989999 22.83349609 42.60693359 C19.57058476 44.97581959 17.98958046 45.30630698 14 45.328125 C12.2984375 45.33779297 12.2984375 45.33779297 10.5625 45.34765625 C9.386875 45.32832031 8.21125 45.30898438 7 45.2890625 C5.2365625 45.31806641 5.2365625 45.31806641 3.4375 45.34765625 C2.303125 45.34121094 1.16875 45.33476563 0 45.328125 C-1.03125 45.32248535 -2.0625 45.3168457 -3.125 45.31103516 C-7.13123509 44.40949618 -8.57849346 42.95331649 -11 39.6640625 C-11.50061116 36.87121898 -11.70418481 34.69779201 -11.6640625 31.9140625 C-11.66884613 31.17833008 -11.67362976 30.44259766 -11.67855835 29.68457031 C-11.6819488 28.13474377 -11.67280592 26.58484489 -11.65185547 25.03515625 C-11.62507002 22.67024464 -11.65162417 20.31007748 -11.68359375 17.9453125 C-11.68028949 16.43488542 -11.6738829 14.92446127 -11.6640625 13.4140625 C-11.67418365 12.7118457 -11.68430481 12.00962891 -11.69473267 11.28613281 C-11.60627758 7.5584716 -11.06195936 5.74822501 -8.83349609 2.72119141 C-5.57058476 0.35230541 -3.98958046 0.02181802 0 0 Z M-7 6.6640625 C-7.27787668 9.09004201 -7.27787668 9.09004201 -7.1953125 11.890625 C-7.19031738 12.81955566 -7.18532227 13.74848633 -7.18017578 14.70556641 C-7.16196777 15.88812012 -7.14375977 17.07067383 -7.125 18.2890625 C-7.08375 22.0428125 -7.0425 25.7965625 -7 29.6640625 C2.24 29.3340625 11.48 29.0040625 21 28.6640625 C21.061875 23.2809375 21.061875 23.2809375 21.125 17.7890625 C21.15231201 16.09354248 21.15231201 16.09354248 21.18017578 14.36376953 C21.1851709 13.47544434 21.19016602 12.58711914 21.1953125 11.671875 C21.20578613 10.76066895 21.21625977 9.84946289 21.22705078 8.91064453 C21.21870993 6.46115814 21.21870993 6.46115814 19 4.6640625 C16.510389 4.35297753 16.510389 4.35297753 13.625 4.3984375 C12.55765625 4.39585938 11.4903125 4.39328125 10.390625 4.390625 C9.27171875 4.39835938 8.1528125 4.40609375 7 4.4140625 C5.32164063 4.40246094 5.32164063 4.40246094 3.609375 4.390625 C2.54203125 4.39320312 1.4746875 4.39578125 0.375 4.3984375 C-1.09839844 4.40182129 -1.09839844 4.40182129 -2.6015625 4.40527344 C-5.18438497 4.43033387 -5.18438497 4.43033387 -7 6.6640625 Z M-7 34.6640625 C-6.71016731 37.97089716 -6.71016731 37.97089716 -5 40.6640625 C-1.02724185 40.91663127 2.95766175 40.84928701 6.9375 40.8515625 C8.06091797 40.86380859 9.18433594 40.87605469 10.34179688 40.88867188 C11.41365234 40.89060547 12.48550781 40.89253906 13.58984375 40.89453125 C14.57847412 40.89864014 15.56710449 40.90274902 16.58569336 40.90698242 C19.18307091 40.90283494 19.18307091 40.90283494 21 38.6640625 C21.16681109 35.58058424 21.16681109 35.58058424 21 32.6640625 C16.70838953 32.60622408 12.41687855 32.5705213 8.125 32.5390625 C6.90167969 32.52230469 5.67835937 32.50554688 4.41796875 32.48828125 C3.25136719 32.48183594 2.08476562 32.47539063 0.8828125 32.46875 C-0.19597168 32.45827637 -1.27475586 32.44780273 -2.38623047 32.43701172 C-5.16044022 32.39566273 -5.16044022 32.39566273 -7 34.6640625 Z " fill="#956311" transform="translate(17,1.3359375)"/>
<path d="M0 0 C5.94 0 11.88 0 18 0 C18 1.32 18 2.64 18 4 C12.06 4 6.12 4 0 4 C0 2.68 0 1.36 0 0 Z " fill="#956311" transform="translate(15,12)"/>
<path d="M0 0 C3.3 0 6.6 0 10 0 C10 1.32 10 2.64 10 4 C6.7 4 3.4 4 0 4 C0 2.68 0 1.36 0 0 Z " fill="#956311" transform="translate(15,20)"/>
</svg>
