<?xml version="1.0" encoding="UTF-8"?>
<svg version="1.1" xmlns="http://www.w3.org/2000/svg" width="48" height="48">
<path d="M0 0 C8.58 0 17.16 0 26 0 C26 1.32 26 2.64 26 4 C17.42 4 8.84 4 0 4 C0 2.68 0 1.36 0 0 Z " fill="#956311" transform="translate(19,34)"/>
<path d="M0 0 C8.58 0 17.16 0 26 0 C26 1.32 26 2.64 26 4 C17.42 4 8.84 4 0 4 C0 2.68 0 1.36 0 0 Z " fill="#956311" transform="translate(19,18)"/>
<path d="M0 0 C2.9375 0.8125 2.9375 0.8125 4.9375 3.8125 C4.75 6.875 4.75 6.875 3.9375 9.8125 C0.9375 11.8125 0.9375 11.8125 -2.125 11.625 C-5.0625 10.8125 -5.0625 10.8125 -7.0625 7.8125 C-6.875 4.75 -6.875 4.75 -6.0625 1.8125 C-3.0625 -0.1875 -3.0625 -0.1875 0 0 Z M-2.0625 3.8125 C-2.0625 5.1325 -2.0625 6.4525 -2.0625 7.8125 C-1.0725 7.4825 -0.0825 7.1525 0.9375 6.8125 C0.6075 5.8225 0.2775 4.8325 -0.0625 3.8125 C-0.7225 3.8125 -1.3825 3.8125 -2.0625 3.8125 Z " fill="#956311" transform="translate(9.0625,26.1875)"/>
<path d="M0 0 C2.9375 0.8125 2.9375 0.8125 4.9375 3.8125 C4.75 6.875 4.75 6.875 3.9375 9.8125 C0.9375 11.8125 0.9375 11.8125 -2.125 11.625 C-5.0625 10.8125 -5.0625 10.8125 -7.0625 7.8125 C-6.875 4.75 -6.875 4.75 -6.0625 1.8125 C-3.0625 -0.1875 -3.0625 -0.1875 0 0 Z M-2.0625 3.8125 C-2.0625 5.1325 -2.0625 6.4525 -2.0625 7.8125 C-1.0725 7.4825 -0.0825 7.1525 0.9375 6.8125 C0.6075 5.8225 0.2775 4.8325 -0.0625 3.8125 C-0.7225 3.8125 -1.3825 3.8125 -2.0625 3.8125 Z " fill="#956311" transform="translate(9.0625,10.1875)"/>
<path d="M0 0 C4.62 0 9.24 0 14 0 C14 1.32 14 2.64 14 4 C9.38 4 4.76 4 0 4 C0 2.68 0 1.36 0 0 Z " fill="#956311" transform="translate(19,26)"/>
<path d="M0 0 C4.62 0 9.24 0 14 0 C14 1.32 14 2.64 14 4 C9.38 4 4.76 4 0 4 C0 2.68 0 1.36 0 0 Z " fill="#956311" transform="translate(19,10)"/>
</svg>
