<?xml version="1.0" encoding="UTF-8"?>
<svg version="1.1" xmlns="http://www.w3.org/2000/svg" width="48" height="48">
<path d="M0 0 C4.60943915 4.19204899 8.54832134 8.66723065 9.2109375 15.0234375 C9.46372935 20.72097683 8.1655887 24.76649396 6 30 C5.65944803 33.24565858 5.65944803 33.24565858 8.5 35.6875 C9.325 36.450625 10.15 37.21375 11 38 C10.67 38.99 10.34 39.98 10 41 C6.56404834 39.47291037 3.88087546 37.40072955 1 35 C-0.134375 35.66 -1.26875 36.32 -2.4375 37 C-8.35517938 39.93274763 -13.84546693 39.85476556 -20.125 38 C-25.79566861 35.61831918 -29.38634786 30.73619276 -32.4375 25.5625 C-33.91140955 18.84802315 -33.66228235 11.96636727 -30 6 C-21.96707624 -2.83273868 -10.86535858 -6.66938677 0 0 Z M-26.80078125 9.28125 C-29.50901565 13.16275858 -29.45943147 17.44902794 -29 22 C-27.15080845 27.43879866 -23.62413162 30.77361725 -19 34 C-14.06558151 35.64480616 -9.73589501 35.5902043 -4.875 33.9375 C-0.35653079 30.89244466 3.26026194 27.21921417 5 22 C5.36823488 16.38441811 5.23891406 12.80613054 2 8 C-2.33774105 3.62124012 -5.47018385 1.16588958 -11.8125 0.75 C-18.76184973 0.88974926 -22.52258192 4.16088545 -26.80078125 9.28125 Z " fill="#956311" transform="translate(35,5)"/>
</svg>
