<?xml version="1.0" encoding="UTF-8"?>
<svg version="1.1" xmlns="http://www.w3.org/2000/svg" width="48" height="48">
<path d="M0 0 C3 1 3 1 4.27441406 3.16137695 C5.61166683 6.20702011 6.94570051 9.25255444 8.25 12.3125 C8.72179687 13.37146484 9.19359375 14.43042969 9.6796875 15.52148438 C10.12054688 16.54177734 10.56140625 17.56207031 11.015625 18.61328125 C11.42071289 19.54954346 11.82580078 20.48580566 12.24316406 21.45043945 C13.04615993 24.15549941 12.97698792 25.39584559 12 28 C9 27 9 27 7.8125 25.125 C7 23 7 23 7 20 C3.04 20 -0.92 20 -5 20 C-5.33 21.65 -5.66 23.3 -6 25 C-6.66 25.99 -7.32 26.98 -8 28 C-8.99 27.67 -9.98 27.34 -11 27 C-10.38631398 23.40624179 -9.41145342 20.29780516 -7.96875 16.953125 C-7.57042969 16.02628906 -7.17210937 15.09945313 -6.76171875 14.14453125 C-6.34535156 13.18933594 -5.92898437 12.23414063 -5.5 11.25 C-5.08363281 10.27933594 -4.66726562 9.30867187 -4.23828125 8.30859375 C-1.14043257 1.14043257 -1.14043257 1.14043257 0 0 Z M0 8 C-1.25664978 10.90600261 -2 12.79604584 -2 16 C-0.02 16 1.96 16 4 16 C3.47731534 13.23723823 2.89130413 10.6739124 2 8 C1.34 8 0.68 8 0 8 Z " fill="#956311" transform="translate(23,6)"/>
<path d="M0 0 C9.9 0 19.8 0 30 0 C30 1.32 30 2.64 30 4 C20.1 4 10.2 4 0 4 C0 2.68 0 1.36 0 0 Z " fill="#956311" transform="translate(9,38)"/>
<path d="M0 0 C0.99 0.33 1.98 0.66 3 1 C3 1.99 3 2.98 3 4 C4.32 4.33 5.64 4.66 7 5 C6.67 5.99 6.34 6.98 6 8 C5.01 8 4.02 8 3 8 C2.67 9.32 2.34 10.64 2 12 C1.01 11.67 0.02 11.34 -1 11 C-1 10.01 -1 9.02 -1 8 C-2.32 7.67 -3.64 7.34 -5 7 C-4.67 6.01 -4.34 5.02 -4 4 C-3.01 4 -2.02 4 -1 4 C-0.67 2.68 -0.34 1.36 0 0 Z " fill="#956311" transform="translate(39,4)"/>
</svg>
